<?xml version="1.0" encoding="UTF-8"?>
<svg id="Capa_1" data-name="Capa 1" xmlns="http://www.w3.org/2000/svg" viewBox="0 0 536.51 537.31">
  <defs>
    <style>
      .cls-1 {
        fill: #fefefe;
        fill-rule: evenodd;
        stroke: #373435;
        stroke-miterlimit: 10;
        stroke-width: .22px;
      }
    </style>
  </defs>
  <path id="cascourbano" class="cls-1" d="m331.8,223.56c-.22-.02-.44-.03-.68-.01-.31.03-.66.1-1.12.26-1.81.6-1.66,0-3.91,1.81-.87.69-1.61,1.72-2.33,2.73l-.73-5.21s-1.24-3.39-2.6-2.14c-1.35,1.24-2.26,2.6-2.26,2.6,0,0-2.48.23-2.52-.24-.53-.74-2.01-4.56-2.75-4.87s-1.59-1.17-2.75-1.69-3.18-1.8-4.03-2.44c-.85-.64-2.01-1.38-1.8-2.54.21-1.17.85-2.75.85-2.75l.74-2.01-1.48-1.27s-.53-2.22-.53-3.07v-2.22l-.85-4.03-.21-2.44-2.54-2.33-.32.72c.43-1.86-.29-6.55-.29-6.55l-.97-2.59.49-4.21s2.27-.97,3.08-.97,1.78.16,3.08-.32c1.3-.49,5.67-1.62,5.67-1.62l.58-.76,2.01-2.64-1.63-2.96c1.58.05,3.28.11,3.6.17.61.12,3.11,1.82,4.57,2.02,1.46.2,2.57,2.04,3.3,2.78.74.74,1.48,1.84,2.46,2.21.98.37,3.07,1.23,3.07,1.23,0,0,1.48.37,1.72,2.21.25,1.84,0,2.83,0,3.57s-.25,5.16-.49,5.78c-.25.61.49,1.84,1.11,5.04.61,3.2.98,3.81.74,5.16-.25,1.35-1.72,4.18-2.46,5.29-.74,1.11-1.97,4.06-1.97,5.78s0,3.57.74,4.67c.74,1.11,1.97,3.81,2.95,6.52.19.53.35.98.47,1.38h0Z"/>
  <path id="lascanas" class="cls-1" d="m297.95,384.4l-.61,7.63-.68,8.51h-13.46l.6,2.99-6.08,6.68-4.49-1.8s-4.39,6.28-4.19,6.78c.2.5-.1,3.39-.1,3.39l-19.75-1.8-10.77,21.24-5.89-1.01s-1.3.19-2.87.53c-1.74-1.54-4.9-3.27-4.9-3.27,0,0-4.26-2.19-6.68-2.56s-3.73-.93-5.22-.75c-1.49.19-5.04,1.49-5.04,1.49,0,0-7.84-1.87-9.14-2.05-1.31-.19-7.09-.37-8.4-.37s-3.36-.19-5.41,1.12c-.48-2.44-1.37-6.45-1.37-7.38s1.85-2.22,3.52-4.44c1.67-2.22,4.44-4.44,4.26-5.56-.19-1.11-2.29-3.35-2.29-3.35,0,0-5.3-3.5-6.97-4.24-1.67-.74-4.44-4.07-4.44-5.37s3.33-9.26,3.15-10.56c-.19-1.3-3.66-3.69-3.7-5.74s-5.74-7.78-5.74-7.78c0,0-2.02-2.3-4.02-4.37,1.4-2.17,2.55-4.17,2.55-4.17l.85-6.5s.56-6.21-1.98-6.78c-1.37-.3-3.16-.86-4.82-1.34.54-.93,1.02-1.91,1.28-2.79.86-2.91,2.97-4.61,4.07-7.26,1.11-2.65,1.99-5.53,3.32-7.52,1.33-1.99,3.54-4.87,3.54-4.87,0,0,3.1-1.33,6.64-2.65s6.28-1.55,6.28-1.55c0,0,8.09-2.43,9.2-3.54,1.11-1.11,4.65-.44,7.74-.44s4.65,3.54,4.65,3.54c0,0,.88,4.2,1.99,5.31,1.11,1.11,3.32.22,5.53-.22,2.21-.44,3.1,0,4.2,0s3.54,0,6.41-.44c2.88-.44,1.11-4.2,1.11-4.2v-4.87l-1.11-3.1-.66-4.2.66-4.87s4.54-1.25,5.16-1.25,9.93-2.86,9.93-2.86c0,0,2.36-1.49,4.81-2.71,2.45-1.22,3.26-.64,4.13-.52.87.12.74.87,2.23,2.23,1.49,1.37,1.99,1.74,4.34,2.48,2.36.74,2.23-1.74,3.85-3.72,1.61-1.99,1.74-3.23,2.11-4.35.37-1.12,1.86-2.73,2.61-4.34.74-1.61,3.72-1.99,4.84-2.36s8.32-4.47,9.19-4.97c.87-.5,9.93-3.48,9.93-3.48l7.51-1.79.96,6.75v6.51c0,1.45.48,4.1,1.93,7.47,1.45,3.37.96,6.51,1.45,7.71.48,1.2-.72,5.54-1.45,7.23s-3.13,4.34-3.13,4.34l-2.8,4.66-9.48,2.81s-4.34,3.13-5.78,3.61c-1.45.48-3.61,3.37-3.61,3.37l-2.65,6.02-2.65,5.06-.48,6.75-3.37,6.02s-2.89.24-4.34,0c-1.45-.24-.48,4.1-.48,4.1l16.38,8.19,18.12,11.49h0Z"/>
  <path id="barcelona" class="cls-1" d="m139.6,517.32c-.39-1.36-.9-3.05-1.34-4.8-.65-2.61-3.58-.98-6.03-1.95-2.44-.98-2.77-.98-4.72-1.47-1.95-.49-4.07-1.95-5.7-2.77-1.63-.81-4.56-3.09-4.56-3.09l-8.14-5.05-5.79-6.54c-1.87.88-3.59,1.74-3.59,1.74,0,0-11.73,1.49-12.55,1.49s-5.29-3.47-6.28-3.47-3.3,2.15-3.3,2.15c0,0-3.63,5.62-4.63,6.61-.99.99-3.24,5.69-4.79,9.41-1.55,3.73-1.82,8.09-1.82,8.92s-1.82,10.24-2.31,11.4c-.5,1.16-1.82,7.27-1.82,7.27l14.54-4.13s6.94-2.81,8.42-3.63c1.49-.83,4.95-.33,4.95-.33l13.38-5.45,4.46,4.96,30.41-10.83,1.2-.43h0Z"/>
  <path id="villaclara" class="cls-1" d="m184.86,431.18c-.09.06-.19.12-.28.18-2.11,1.29-5.69,3.04-5.87,3.93-.19.93,1.31,4.29,1.31,5.78s-2.96,5.16-2.96,5.16c0,0-4.13,1-6.56.25-2.43-.75-5.04-1.49-8.4-1.87-3.36-.37-9.89-1.31-9.89-1.31l-9.51-5.22s-1.12-.19-3.54,0c-2.43.19-7.84.19-7.84.19,0,0-2.61-1.31-4.29-1.31s-1.31-.75-3.73-.37l-2.64-10.18-2.54-10.17,2.82-11.86,8.41-5.86,4.3-10.53,7.63-1.4s1.69-3.69,4.23-3.69,6.5-3.67,8.47-3.67,7.06-1.13,8.76-1.41c.62-.1,1.72-1.41,2.88-3.02.55-.77,1.11-1.6,1.63-2.41,2,2.07,4.02,4.37,4.02,4.37,0,0,5.7,5.72,5.74,7.78s3.52,4.44,3.7,5.74c.19,1.3-3.15,9.26-3.15,10.56s2.78,4.63,4.44,5.37c1.67.74,6.97,4.24,6.97,4.24,0,0,2.11,2.24,2.29,3.35.18,1.11-2.59,3.33-4.26,5.56-1.67,2.22-3.52,3.52-3.52,4.44s.89,4.94,1.37,7.38h0Z"/>
  <path id="castillo" class="cls-1" d="m163.85,353.61c-.96-.28-1.88-.54-2.65-.72-.37-.09-.71-.15-1-.19-1.98-.28-3.24-.02-4.5-1.27-1.26-1.26-1.76-4.53-3.52-4.9-1.76-.38-5.41-3.02-6.29-3.02s-2.77-2.89-3.9.38c-1.13,3.27-4.02,5.91-4.02,5.91,0,0-3.27-.25-5.16,0-.93.12-1.43.37-1.84.78-.03,0-.05,0-.08,0-1.55.17-13.6-4.77-13.6-4.77,0,0-5.62-2.16-5.38-4.31.23-2.16,2.11-7.43,4.68-6.73,2.57.23,11.23-7.49,9.83-8.19-1.4-.7.1-5.09-4.45-2.34-4.55,2.75-4.68,1.64-7.49,3.28-2.81,1.64-5.15,2.57-6.79,2.57s-5.38-1.17-6.79-1.64c-1.4-.47-.16-1.81-3.74-1.64-3.59.17-3.74-2.57-4.91-3.98-1.17-1.4-1.4-7.26-1.4-7.26,0,0-2.11-3.51-3.74-3.74-1.64-.23-5.15,0-5.15-1.64s2.34-9.6,2.34-9.6l-.23-9.6-.47-8.43s-3.28-3.04-4.45-3.98c-1.17-.94-5.38-4.45-5.38-4.45l-8.89-3.74s-.48-.18-1.21-.47c.81-2.61,1.67-5.66,1.67-6.79,0-2.11,1.64-2.11,3.98-5.15,2.34-3.04,3.51-2.57,6.55-4.21,3.04-1.64,4.91-3.51,7.26-5.38,1.77-1.42,2.47-3.65,2.6-5.56,1.29-.08,2.54-.12,3.51-.08,3.5.16,1.34,0,4.34.73,3,.73,2.16.03,3.12-.16.96-.19,1.53-.96,2.68-1.34,1.15-.38,1.34.38,3.63.96,2.29.57,4.21-1.15,4.21-1.15,0,0,1.53-.96,2.87-3.25,1.34-2.29,2.29-1.15,2.29-1.15,0,0,1.91,5.74,3.06,7.84s2.29,3.06,3.25,3.44c.96.38,5.74.19,5.74.19l4.4,1.72,4.78-.57,4.59,2.49s4.78-.57,5.74-1.53c.96-.96,3.82.38,4.97.38s6.12-.19,6.12-.19l7.65-4.59s1.2-.44,2.61-1.03c1.38-.57,2.96-1.29,3.82-1.87l5.41,3.86s5.53,2.88,6.64,3.76c1.11.88,3.98,2.43,3.98,2.43,0,0,1.99-2.43,3.1-1.99,1.11.44-2.25,3.34.75,3.66,3.01.32,15.39,4.3,17.61,4.3h19.69l7.52-1.11s-1.56,8.52.66,8.63.22,7.96.22,9.51.44,4.65-1.77,5.31c-2.21.66-3.54,1.99-3.54,1.99l.66,5.53s1.55,4.42.44,4.65c-1.11.22-5.75.88-8.85,1.55-3.1.66-8.18,3.32-8.18,3.32l-.61,4.02s3.71,2.83,4.82,3.5c1.11.66,6.64,2.43,6.64,2.43l4.42.88-.66,4.87.66,4.2,1.11,3.1v4.87s1.77,3.76-1.11,4.2c-2.88.44-5.31.44-6.41.44s-1.99-.44-4.2,0c-2.21.44-4.42,1.33-5.53.22-1.11-1.11-1.99-5.31-1.99-5.31,0,0-1.55-3.54-4.65-3.54s-6.64-.66-7.74.44c-1.11,1.11-9.2,3.54-9.2,3.54,0,0-2.75.22-6.28,1.55-3.54,1.33-6.64,2.65-6.64,2.65,0,0-2.21,2.88-3.54,4.87-1.33,1.99-2.21,4.87-3.32,7.52-1.11,2.65-3.21,4.35-4.07,7.26-.26.88-.74,1.85-1.28,2.79h0Z"/>
  <path id="josemanuel" class="cls-1" d="m299.35,282.32l5.44-3.44,1.2-2.23s-3.94-7.54-4.29-8.74c-.34-1.2-.17-8.06.69-8.91s2.06-3.26,2.91-3.94c.86-.69,3.09-4.46,3.94-4.8.86-.34,3.94-3.94,3.94-3.94l5.83,3.77,5.31,3.43s.34,3.77.69,4.63c.34.86.86,3.6,2.91,5.31,2.06,1.71,6.34,7.89,6.34,7.89,0,0,3.6,1.54,4.8,2.74s6.69,3.77,6.86,4.97c.17,1.2-1.37,5.83-1.71,6.69-.34.86-1.5.71-.86,3.09.64,2.38,1.71,3.09,3.43,4.8s3.77,4.46,4.8,5.14c1.03.69,2.66,3.76,3.88,3.41h0c-.11.13.05.35.45.95,1.33,1.94,10.65-1.06,2.16,5.61-8.5,6.66-9.83,7.5-10.49,8.49-.67,1-3.33,3.66-4.16,4.83-.83,1.17-9.3,5.78-9.3,5.78,0,0-3.48,2.37-5.37,5.37-1.9,3-4.11,5.85-4.11,9.01s.39,6.56-2.05,7.58c-2.44,1.02-2.69,3.63-2.69,3.63l3.79,3.16-15.33,32.86-10.43-5.06-18.12-11.49-16.38-8.19s-.96-4.34.48-4.1c1.45.24,4.34,0,4.34,0l3.37-6.02.48-6.75,2.65-5.06,2.65-6.02s2.17-2.89,3.61-3.37c1.45-.48,5.78-3.61,5.78-3.61l9.48-2.81,2.8-4.66s2.41-2.65,3.13-4.34,1.93-6.02,1.45-7.23c-.48-1.2,0-4.34-1.45-7.71-1.45-3.37-1.93-6.02-1.93-7.47v-6.51l-.96-6.75h0Z"/>
  <path id="pajonal" class="cls-1" d="m303.88,256.9c-.53.81-1.05,1.65-1.49,2.09-.14.14-.26.43-.36.83-.54,2.09-.61,7.07-.32,8.08.34,1.2,4.29,8.74,4.29,8.74l-1.2,2.23-5.44,3.44-7.51,1.79s-9.06,2.98-9.93,3.48c-.87.5-8.07,4.59-9.19,4.97s-4.1.74-4.84,2.36c-.74,1.61-2.23,3.23-2.61,4.34-.37,1.12-.5,2.36-2.11,4.35-1.61,1.99-1.49,4.47-3.85,3.72-2.36-.74-2.86-1.12-4.34-2.48-1.49-1.37-1.37-2.11-2.23-2.23-.87-.12-1.68-.7-4.13.52-2.45,1.22-4.81,2.71-4.81,2.71,0,0-9.31,2.86-9.93,2.86s-5.16,1.25-5.16,1.25l-4.42-.88s-5.53-1.77-6.64-2.43c-1.11-.66-4.82-3.5-4.82-3.5l.61-4.02s5.09-2.65,8.18-3.32c3.1-.66,7.74-1.33,8.85-1.55,1.11-.22-.44-4.65-.44-4.65l-.66-5.53s1.33-1.33,3.54-1.99c2.21-.66,1.77-3.76,1.77-5.31s2-9.41-.22-9.51c-1.04-.05-1.25-1.94-1.18-3.94.08-2.27.52-4.69.52-4.69l-.89.13c1.48-1.15,2.87-2.33,3.77-3.33,2.89-3.2,5.34-.64,5.34-.64,0,0,1.95,1.11,4.45,2.5,2.5,1.39,5.84,4.45,5.84,4.45,0,0,3.89,2.5,5.56,2.5s3.61-3.06,6.12-5c2.5-1.95,5.28-2.22,8.47-3.81,3.19-1.59.98-5.92.98-5.92l-.98-6.01s3.76.45,5.71.45,3.06,1.11,6.22-.45c3.16-1.56,4.62,5.17,7.12,5.73s4.45,3.06,7.23,4.17c1.4.56,3.36,2.11,5.15,3.51h0Z"/>
  <path id="barbascal" class="cls-1" d="m119.94,445.03c1.08-4.51.46-4.88.46-4.88,0,0,.2-1.33,1-2.37.44-.57,1.05-1.06,1.91-1.19l-2.64-10.18-2.54-10.17,2.82-11.86,8.41-5.86,4.3-10.53,7.63-1.4s1.69-3.69,4.23-3.69,6.5-3.67,8.47-3.67,7.06-1.13,8.76-1.41c1.69-.28,7.06-9.6,7.06-9.6l.85-6.5s.56-6.21-1.98-6.78c-2.54-.56-6.5-1.98-8.47-2.26-1.98-.28-3.24-.02-4.5-1.27-1.26-1.26-1.76-4.53-3.52-4.9-1.76-.38-5.41-3.02-6.29-3.02s-2.77-2.89-3.9.38c-1.13,3.27-4.02,5.91-4.02,5.91,0,0-3.27-.25-5.16,0-1.89.25-2.01,1.01-3.14,2.64-1.13,1.63-2.26,2.39-2.26,2.39,0,0-4.02,2.77-4.65,2.39-.63-.38-3.52-3.39-4.65-2.77s-2.89,1.26-3.77,2.89c-.88,1.63-.38,2.26-2.01,2.01-1.63-.25-4.53-1.89-4.53-1.89,0,0-3.02-1.13-3.27-.13-.25,1.01-.75,3.27-1.76,3.27s-2.51-.13-3.39-.38c-.88-.25-1.13-1.89-2.64-.88-1.51,1.01-1.53,4.42-3.15,3.41-1.62-1.02-6.65-3.41-8.41-5.54-1.76-2.14-.88-2.26-2.26-2.64-1.38-.38-2.01-1.63-3.52-1.51-1.51.13-6.66,3.02-6.66,3.02,0,0-6.66,2.14-8.3,3.9s-1.89,3.52-3.27,4.4-2.14,1.76-3.77,2.77c-1.63,1.01-.88.88-4.78,3.14-.51.3-1,.59-1.47.88,0,1.7.04,2.23.46,3.92.46,1.84,2.77.55,4.34.37,1.57-.18,3.23.28,4.89.74,1.66.46.37,2.21.74,3.97.37,1.75,1.75,3.14,2.86,3.97,1.11.83,1.01,2.49,1.01,2.49,0,0,1.11,1.94,1.84,2.4.74.46,1.57,1.11,3.23,1.29,1.66.18,1.29-.55,2.58-1.57,1.29-1.01,2.67-.74,3.78-.92,1.11-.18,6.55,1.01,6.55,1.01,0,0-.37,3.97-.37,5.07s-.65,1.75-1.94,6.55.46,3.14,1.01,3.6c.15.13.23.55.25,1.13.05,1.52-.31,4.11-.71,5.28-.56,1.61-.64,3.55-1.56,4.66-.92,1.11-2.21,5.63-2.21,5.63,0,0,1.94,1.38,3.78,1.64s1.44,2.33,1.44,2.33c0,0,1.37.58,2.09.79.72.22,3.46,1.87,3.46,1.87,0,0-1.37,3.03-2.16,4.47-.79,1.44-2.02,4.11-2.81,5.41-.79,1.3-1.37,4.9-2.31,7.07-.94,2.16-.94,2.09-1.37,3.53-.43,1.44,2.23,1.44,2.88,1.51.65.07,7.86-.72,7.86-.72,0,0,6.27-1.66,7.35-2.16,1.08-.5,3.39-1.66,4.33-2.09.94-.43,2.6.36,3.03.43.43.07,6.49,2.31,6.49,2.31,0,0,1.73,2.16,2.31,2.67.58.5,3.24-1.3,3.24-1.3l2.45-3.46h0Z"/>
  <path id="junin" class="cls-1" d="m178.52,503.47l-38.92,13.85c-.39-1.36-.9-3.05-1.34-4.8-.65-2.61-3.58-.98-6.03-1.95-2.44-.98-2.77-.98-4.72-1.47-1.95-.49-4.07-1.95-5.7-2.77-1.63-.81-4.56-3.09-4.56-3.09l-8.14-5.05-5.79-6.54c.33-.16.66-.31.99-.46,1.56-.72,3.03-1.36,3.51-1.43,1.16-.17,13.21-9.91,13.21-9.91l12.88-7.27s1.49-1.32,1.82-2.64c.33-1.32-1.82-5.62-2.97-6.61s-4.95-7.93-4.95-7.93c0,0-.01-2.2-.54-3.64-.06-.16-.12-.31-.2-.45-.72-1.37-1.3-4.25-2.16-4.4s-4.97-1.87-4.97-1.87c1.08-4.51.46-4.88.46-4.88,0,0,.2-1.33,1-2.37.44-.57,1.05-1.06,1.91-1.19h0c2.43-.37,2.05.37,3.73.37s4.29,1.31,4.29,1.31c0,0,5.41,0,7.84-.19,2.43-.19,3.54,0,3.54,0l9.51,5.22s6.53.93,9.89,1.31c3.36.37,5.97,1.12,8.4,1.87,2.43.75,6.56-.25,6.56-.25,0,0,2.96-3.67,2.96-5.16s-1.49-4.85-1.31-5.78c.19-.93,4.1-2.8,6.16-4.1,2.05-1.31,4.1-1.12,5.41-1.12s7.09.19,8.4.37c1.31.19,9.14,2.05,9.14,2.05,0,0,3.54-1.31,5.04-1.49,1.49-.19,2.8.37,5.22.75s6.68,2.56,6.68,2.56c0,0,3.15,1.72,4.9,3.27-2.16.48-4.83,1.25-5.33,2.27-.01.02-.02.04-.03.07-.72,1.79-6.45,10.21-6.45,10.21l3.76,6.8s.9,5.37,1.43,8.6-.54,7.7-.54,7.7l-.54,1.97s-9.49-1.97-11.28-1.97-8.95-1.25-10.03-.54c-1.07.72-3.22,4.83-2.86,6.09.36,1.25,0,6.98,0,11.28s-.9,6.8-.9,6.8l-18.37,6.62h0Z"/>
  <path id="tementino" class="cls-1" d="m377.27,288.16c-.33-.35-.52-.58-.52-.58,0,0-2.75,1.61-6.07,4.15-.68.52-1.38,1.08-2.09,1.68-4.16,3.5-3.67,3.28-8.16,6.5-.68.49-1.28.85-1.82,1.14-1.92,1.01-2.93.91-3.13,1.13h0c-1.23.35-2.86-2.72-3.88-3.41s-3.09-3.43-4.8-5.14-2.78-2.42-3.43-4.8c-.64-2.38.51-2.23.86-3.09.34-.86,1.89-5.49,1.71-6.69-.17-1.2-5.66-3.77-6.86-4.97s-4.8-2.74-4.8-2.74c0,0-4.29-6.17-6.34-7.89-.6-.5-1.07-1.09-1.44-1.69-.9-1.46-1.23-3.02-1.48-3.63-.34-.86-.69-4.63-.69-4.63l-5.31-3.43-5.83-3.77s-.09.11-.25.29c-.26-1.19-.54-2.29-.85-3.07-1.1-2.78.75-2.86.75-2.86,0,0,2.26-3.61,3.31-4.67s1.81-4.37,4-4.43,3.67-4.15,5.93-5.96c2.26-1.81,2.11-1.2,3.91-1.81,1.81-.6,1.96,0,4.37,0s3.76.9,3.76.9l9.63,3.91s3.91,2.41,6.47,3.76c2.56,1.35,2.86,2.26,2.86,3.16v4.37c0,.75-1.16,3.58-1.16,3.58,0,0,.41,10.42,0,11.93-.41,1.51-.64,7.82-.49,9.78.15,1.96.9,4.52,1.35,5.42.45.9,2.11,3.16,2.11,3.16,0,0,6.62,1.81,8.88,2.41,2.26.6,6.02,2.26,6.02,2.26,0,0,2.71,4.37,3.01,6.32.1.65.29,1.92.45,3.39h0Z"/>
  <path id="sicara" class="cls-1" d="m496.26,170.95c-1.62-.64-3.66-1.54-5.28-2.56-3.2-2.02-2.52-1.85-3.37-2.69-.84-.84-1.68-2.19-3.53-4.71-1.85-2.52-2.36-2.86-4.04-3.87-1.68-1.01-2.19-4.37-3.53-7.91-1.35-3.53-4.21-9.76-4.21-11.78s-2.54-7.67-2.54-7.67c0,0-1.41-3.05-1.88-4.22-.47-1.17-.82-3.63-.82-3.63,0,0,.12-4.34.12-5.39s-.7-4.69-1.29-6.45c-.59-1.76-1.99-1.99-3.4-3.05-1.41-1.05-1.99-.7-4.45-1.17-2.46-.47-2.11-2.23-2.11-2.23,0,0-3.28-1.52-4.61-3.23s-3.25,1.24-4.18,1.59c-.94.35-1.87.47-3.63,1.17s-2.11,1.76-3.4,3.16c-1.29,1.41-2.7-.12-4.22-.59s-3.52-.82-5.04-1.05-4.57.82-5.98.7c-1.41-.12-3.28,2.11-3.28,3.16.21.83-.02,1.65-.37,4-.35,2.35-.7,1.76-1.41,1.53-.7-.23-1.06-2.82-1.29-4.23-.23-1.41-.59-2.94-.59-2.94l-8.34,4.93s-1.76,2.47-2.47,2.47-1.17,3.29-1.17,3.29l1.76,5.05,3.64,7.99.47,2.35-3.05,5.17s-.35.59-.94,1.06c-.59.47-2.58,4.11-2.7,4.7-.12.59,0,4.35,0,5.29s-.23,5.76-.23,7.87.23,5.99.7,7.4c.47,1.41,1.17,3.05,1.88,3.29.7.23-.96,5.18-.96,5.18v2.45c0,1.69.49,1.69.93,2.29.44.6,1.47,1.96,2.89,2.56,1.42.6-.16,1.63-.38,2.29-.22.65-.71,1.69-1.14,3.54-.44,1.85-.22,2.61-.22,2.61,0,0-.76,2.89-.98,3.59-.22.71-1.86,1.84-1.86,1.84,0,0-1.96,1.67-3.87.89-1.91-.78-4.47.89-5.51,1.49-1.04.6-3.72,1.79-5.51,2.83-1.79,1.04-3.57.89-5.06,1.34-1.49.45-6.11.45-7.3.3-1.19-.15-5.06-2.23-5.06-2.23,0,0-5.5-2.94-7.45-4.62s-4.47-1.64-6.7-2.23c-2.23-.6-.3,3.87-.3,3.87l-1.49,4.47v4.02s-1.52,3.5-3.43,4.02c-1.91.52-3.43,1.19-3.43,1.19,0,0-2.98-.45-4.32-.74s-3.43-2.23-5.21-3.28c-1.79-1.04-4.02-2.38-4.02-2.38l-5.93-.69c-.53,1.13-1.16,2.27-1.57,2.88-.74,1.11-1.97,4.06-1.97,5.78s0,3.57.74,4.67c.74,1.11,1.97,3.81,2.95,6.52.19.53.35.98.47,1.38.61.06,1.25.24,2.57.24,2.41,0,3.76.9,3.76.9l9.63,3.91s3.91,2.41,6.47,3.76c2.56,1.35,2.86,2.26,2.86,3.16v4.37c0,.75-1.16,3.58-1.16,3.58,0,0,.41,10.42,0,11.93-.41,1.51-.64,7.82-.49,9.78.15,1.96.9,4.52,1.35,5.42.45.9,2.11,3.16,2.11,3.16,0,0,6.62,1.81,8.88,2.41,2.26.6,6.02,2.26,6.02,2.26,0,0,2.71,4.37,3.01,6.32.1.65.29,1.92.45,3.39.97,1.03,3.09,3.09,4.81,3.25,2.29.21,4-3.16,6.33-5.5s1.5-11.99,0-14.49c-1.5-2.5-4-4.83-6-6.5-2-1.67-.17-4.33,1.33-6.33,1.5-2,6-3.33,10.83-5.5,4.83-2.17,8.49.33,8.49.33,0,0,1.5,5.66,5.16,11.33,3.66,5.66,3.66,2.5,3.66,2.5,0,0,3.83-2,6.16-2.67,2.33-.67,12.66.17,12.66.17l-.39-16.56,8.65-1.77v-5.57l-9.41-2.52,2.02-10.11s6.07-3.29,11.88-6.07,7.86-2.51,7.86-2.51l7.81-8.11s7.33,3.54,11.12,4.55c3.79,1.01,8.6,3.54,12.39,4.8,3.79,1.26,4.3,3.54,5.81,4.3,1.52.76,6.32-.51,7.08-1.77.76-1.26,6.32-2.28,10.11-5.56,3.79-3.29,2.53-.51,6.83-2.28,4.3-1.77,4.3-3.79,6.57-6.32,2.28-2.53,1.77-3.79,3.79-8.85,2.02-5.06.03-4.62,3.29-6.32,3.25-1.7.51,1.77,1.26,3.79.76,2.02,4.3,3.03,7.58,3.03s-.18-5.12-.18-5.12c0,0,1.69-3.98.43-5.5-1.26-1.52-4.55-2.53-6.07-3.29-1.52-.76-8.34-1.52-11.12-2.53-2.78-1.01-3.03-.51-7.09-.61-4.06-.11-1-5.45-2.26-5.45s-7.58,2.28-9.86,1.52c-2.28-.76-3.29-7.33-3.29-7.33l.02-.05.7-1.61h0Z"/>
  <path id="canogrande" class="cls-1" d="m434.88,38.82l5.01.04,8.69.06,18.75-1.66,23.97-2.85,31.59-5.56.92,74.85-5.7-1.19-6.64,3.8s2.37,6.88,3.56,7.36c1.19.47,2.37,4.27,2.85,5.46.47,1.19-1.66,5.7-1.66,5.7l-19.95,46.13c-1.62-.64-3.66-1.54-5.28-2.56-3.2-2.02-2.52-1.85-3.37-2.69-.84-.84-1.68-2.19-3.53-4.71-1.85-2.52-2.36-2.86-4.04-3.87-1.68-1.01-2.19-4.37-3.53-7.91-1.35-3.53-4.21-9.76-4.21-11.78s-2.54-7.67-2.54-7.67c0,0-1.41-3.05-1.88-4.22-.47-1.17-.82-3.63-.82-3.63,0,0,.12-4.34.12-5.39s-.7-4.69-1.29-6.45c-.59-1.76-1.99-1.99-3.4-3.05-1.41-1.05-1.99-.7-4.45-1.17-2.46-.47-2.11-2.23-2.11-2.23,0,0-3.28-1.52-4.61-3.23s-3.25,1.24-4.18,1.59c-.94.35-1.87.47-3.63,1.17s-2.11,1.76-3.4,3.16c-1.29,1.41-2.7-.12-4.22-.59s-3.52-.82-5.04-1.05-4.57.82-5.98.7c-1.41-.12-3.28,2.11-3.28,3.16.21.83-.02,1.65-.37,4-.35,2.35-.7,1.76-1.41,1.53-.7-.23-1.06-2.82-1.29-4.23-.23-1.41-.59-2.94-.59-2.94l-8.34,4.93s-1.76,2.47-2.47,2.47-1.17,3.29-1.17,3.29l1.76,5.05,3.64,7.99.47,2.35-3.05,5.17s-.35.59-.94,1.06c-.59.47-2.58,4.11-2.7,4.7-.12.59,0,4.35,0,5.29s-.23,5.76-.23,7.87.23,5.99.7,7.4c.47,1.41,1.17,3.05,1.88,3.29.7.23-.96,5.18-.96,5.18v2.45c0,1.69.49,1.69.93,2.29.44.6,1.47,1.96,2.89,2.56,1.42.6-.16,1.63-.38,2.29-.22.65-.71,1.69-1.14,3.54-.44,1.85-.22,2.61-.22,2.61,0,0-.76,2.89-.98,3.59-.22.71-1.86,1.84-1.86,1.84,0,0-1.96,1.67-3.87.89-1.91-.78-4.47.89-5.51,1.49-1.04.6-3.72,1.79-5.51,2.83-1.79,1.04-3.57.89-5.06,1.34-1.49.45-6.11.45-7.3.3-1.19-.15-5.06-2.23-5.06-2.23,0,0-4.83-2.58-7.04-4.29-.15-.11-.29-.23-.41-.33-.96-.83-2.07-1.24-3.21-1.51l.05-.03c4.25-3.09,7.79-6.57,9.92-7.96s7.51-12.79,7.51-12.79c0,0,4.56-.76,7.39-3.89,2.84-3.13,7.56-4.38,4.85-8.1-2.72-3.72-3.07-5.46-6.27-7.54-3.19-2.09-6.39-5.21-8.51-7.65-2.13-2.43-3.55-10.08-3.55-11.39,0,0,6.03-5.68,8.87-8.16,2.84-2.48,5.68-6.74,5.68-6.74,0,0-.95-9.09,3.78-8.27,4.73.82,10.76-4.86,10.76-4.86,0,0,.9-2.25,4.53-2.9,3.63-.65,9.19-4.49,9.19-4.49,0,0-.24-5.03-3.07-5.74-2.84-.71-2.13-1.77-7.1-2.13-4.97-.35-5.68.71-7.81-1.42-2.13-2.13-3.55-5.32-3.55-7.45s-2.96-7.74-2.96-7.74l1.18-5.03s-4.61-2.13,1.42-4.61c6.03-2.48,8.51-4.26,10.64-6.39,2.13-2.13,3.67-4.32,6.11-2.58,3.69-2.01,9.68-7.6,14.86-10.02,2.06-.96,5.16-3.34,8.15-5.87h0Z"/>
  <path id="tinajones" class="cls-1" d="m289.4,126.59c.52-.3.88-.5.99-.57.98-.59,7.08-3.93,8.45-4.91s11.2-9.63,11.2-9.63l12.91-10.11,7.4-9.02s.9-8.3-.54-8.84-5.77-6.31-5.77-6.31l.9-7.94s-.36-8.3-.54-9.2c-.18-.9-1.15-4.19-2.71-5.77s-.58.99-1.55-1.58c-.97-2.57.29-7.8.29-7.8l1.26-3.07,7.76-5.77s4.87-5.77,7.4-7.94c2.53-2.16,6.13-5.23,7.4-5.95s5.95-5.77,5.95-5.77l7.94-4.87,9.64-2.62s6.51-2.08,7.25-2.62c.74-.54,4.03-2.69,4.57-3.09.54-.4,2.15-2.42,3.63-2.62,1.48-.2,4.36-.87,5.84-.13,1.48.74,3.76,2.01,3.69,3.02-.07,1.01-1.48,3.56-1.48,3.56,0,0,1.68,3.56,2.01,4.9.34,1.34.81,3.96,1.54,5.44.74,1.48,1.88,4.7,1.88,4.7l.81,5.64,1.41,2.42,8.17,3.23,18.01,5.39,9.76.07c-2.99,2.52-6.09,4.9-8.15,5.87-5.18,2.42-11.18,8.01-14.86,10.02-2.44-1.74-3.98.45-6.11,2.58-2.13,2.13-4.61,3.9-10.64,6.39-6.03,2.48-1.42,4.61-1.42,4.61l-1.18,5.03s2.96,5.61,2.96,7.74,1.42,5.32,3.55,7.45c2.13,2.13,2.84,1.06,7.81,1.42,4.97.35,4.26,1.42,7.1,2.13,2.84.71,3.07,5.74,3.07,5.74,0,0-5.56,3.84-9.19,4.49-3.63.65-4.53,2.9-4.53,2.9,0,0-6.03,5.68-10.76,4.86-4.73-.82-3.78,8.27-3.78,8.27,0,0-2.84,4.26-5.68,6.74-2.84,2.48-8.87,8.16-8.87,8.16,0,1.31,1.42,8.96,3.55,11.39,2.13,2.43,5.32,5.56,8.51,7.65,3.19,2.09,3.55,3.82,6.27,7.54,2.72,3.72-2.01,4.97-4.85,8.1-2.84,3.13-7.39,3.89-7.39,3.89,0,0-5.38,11.4-7.51,12.79-2.13,1.39-5.68,4.87-9.92,7.96l-.05.03c-1.16-.28-2.37-.42-3.5-.72-2.23-.6-.3,3.87-.3,3.87l-1.49,4.47v4.02s-1.52,3.5-3.43,4.02c-1.91.52-3.43,1.19-3.43,1.19,0,0-2.98-.45-4.32-.74s-3.43-2.23-5.21-3.28c-1.79-1.04-4.02-2.38-4.02-2.38l-5.93-.69c.14-.31.28-.61.4-.91.24-.57.41-1.1.49-1.5.25-1.35-.12-1.97-.74-5.16-.61-3.2-1.35-4.43-1.11-5.04.25-.61.49-5.04.49-5.78s.25-1.72,0-3.57c-.25-1.84-1.72-2.21-1.72-2.21,0,0-2.09-.86-3.07-1.23-.98-.37-1.72-1.48-2.46-2.21s-1.84-2.58-3.3-2.78c-1.46-.2-3.95-1.89-4.57-2.02-.31-.06-2.02-.13-3.6-.17l-.16-.28s-.81-2.11-1.62-3.73c-.81-1.62-1.86-2.55-1.98-5.73-.12-3.18-2.39-9.49-2.39-9.49l-3.73-7.13s-2.61-6.38-4.21-6.8-1.62-2.75-2.92-4.05c-.91-.91-3.89-4.12-5.59-5.97h0Z"/>
  <path id="chiqui" class="cls-1" d="m323.75,228.34l-.73-5.21s-1.24-3.39-2.6-2.14c-1.35,1.24-2.26,2.6-2.26,2.6,0,0-2.48.23-2.52-.24-.53-.74-2.01-4.56-2.75-4.87s-1.59-1.17-2.75-1.69-3.18-1.8-4.03-2.44c-.85-.64-2.01-1.38-1.8-2.54.21-1.17.85-2.75.85-2.75l.74-2.01-1.48-1.27s-.53-2.22-.53-3.07v-2.22l-.85-4.03-.21-2.44-2.54-2.33-1.17,2.65s1.12,1.27-.85,1.38c-1.97.1-4.45-.95-4.45-.95,0,0-.74-.64-1.59-.11-.85.53-4.13-1.69-4.13-1.69,0,0-2.75-1.38-3.71-1.38s-1.8-.53-2.01.64-.74,2.86-.74,3.39-2.97,1.8-3.18,2.65c-.21.85,3.18,3.71-.53,1.38-3.71-2.33-4.08-4.13-5.48-3.81-1.4.32-5.32,2.76-5.32,2.76l-3.07,1.48s-6.74.65-8.07.65-5.72.67-5.72.67l-.1,4.39s-1.81,4.67-1.53,5.72c.29,1.05.29,2.19.29,2.77s-2.1,1.14-3.34,1.14h-2.48l-10.68,5.15-6.2,4.2-6.96,4.2-4.96-7.63-13.16,3.43-9.35,2.96s-2,.48-3.91-.48c-1.91-.95-2.1-2.19-2.96-1.62-.86.57-2.38,2.48-3.15,3.72-.76,1.24-3.72,3.82-4.48,3.82s-1.91.1-2.96-.38c-.38-.17-1.2-.69-2.09-1.27l-.02.02c-.96.76-3.82,2.87-3.82,2.87l.76,5.55s1.53,2.29.38,3.44c-.11.11-.27.23-.45.36l5.41,3.86s5.53,2.88,6.64,3.76c1.11.88,3.98,2.43,3.98,2.43,0,0,1.99-2.43,3.1-1.99,1.11.44-2.25,3.34.75,3.66,3.01.32,15.39,4.3,17.61,4.3h19.69l6.63-.98c1.48-1.15,2.87-2.33,3.77-3.33,2.89-3.2,5.34-.64,5.34-.64,0,0,1.95,1.11,4.45,2.5,2.5,1.39,5.84,4.45,5.84,4.45,0,0,3.89,2.5,5.56,2.5s3.61-3.06,6.12-5c2.5-1.95,5.28-2.22,8.47-3.81,3.19-1.59.98-5.92.98-5.92l-.98-6.01s3.76.45,5.71.45,3.06,1.11,6.22-.45c3.16-1.56,4.62,5.17,7.12,5.73s4.45,3.06,7.23,4.17c1.4.56,3.36,2.11,5.15,3.51.5-.77,1-1.52,1.42-1.86.86-.69,3.09-4.46,3.94-4.8.71-.28,2.94-2.79,3.69-3.65-.26-1.19-.54-2.29-.85-3.07-1.1-2.78.75-2.86.75-2.86,0,0,2.26-3.61,3.31-4.67s1.81-4.37,4-4.43c1.36-.04,2.44-1.61,3.59-3.23h0s0,0,0,0Z"/>
  <path id="elparaiso" class="cls-1" d="m299.71,192.99l.17-.39.1-.22h0c.43-1.86-.29-6.55-.29-6.55l-.97-2.59.49-4.21s2.27-.97,3.08-.97,1.78.16,3.08-.32c1.3-.49,5.67-1.62,5.67-1.62l2.59-3.4-1.78-3.24s-.81-2.11-1.62-3.73c-.81-1.62-1.86-2.55-1.98-5.73-.12-3.18-2.39-9.49-2.39-9.49l-3.73-7.13s-2.61-6.38-4.21-6.8-1.62-2.75-2.92-4.05c-.91-.91-3.89-4.12-5.59-5.97l-.9.51c-4.65,2.64-16.05,9.08-16.05,9.08l-11.54,7.92-13.37,11.6-16.12,8.06-12.19,5.7-24.42,12.98s-1.81.95-3.19,1.55c-1.38.6-4.57,1.98-7.24,3.19-2.67,1.21-3.71,1.9-5.17,2.85-1.21.79-3.73,3.35-4.56,4.2l4.46,6.28s2.83,5.02.38,6.12c-2.45,1.1-4.02,2.29-4.02,3.82s0,3.06.19,4.02-3.25,3.44-3.25,4.97-.19,4.59.19,6.69c.38,2.09.57,4.56-.36,5.34.89.58,1.71,1.09,2.09,1.27,1.05.48,2.19.38,2.96.38s3.72-2.58,4.48-3.82c.76-1.24,2.29-3.15,3.15-3.72.86-.57,1.05.67,2.96,1.62,1.91.95,3.91.48,3.91.48l9.35-2.96,13.16-3.43,4.96,7.63,6.96-4.2,6.2-4.2,10.68-5.15h2.48c1.24,0,3.34-.57,3.34-1.14s0-1.72-.29-2.77c-.29-1.05,1.53-5.72,1.53-5.72l.1-4.39s4.39-.67,5.72-.67,8.07-.65,8.07-.65l3.07-1.48s3.92-2.44,5.32-2.76c1.4-.32,1.78,1.48,5.48,3.81,3.71,2.33.32-.53.53-1.38.21-.85,3.18-2.12,3.18-2.65s.53-2.22.74-3.39c.21-1.17,1.06-.64,2.01-.64s3.71,1.38,3.71,1.38c0,0,3.28,2.22,4.13,1.69.85-.53,1.59.11,1.59.11,5.4,2.31,4.57,1.22,5.88-1.75h0Z"/>
  <path id="playasdelviento" class="cls-1" d="m70.92,220.9c2.88-.92,5.98-2.01,5.98-2.01l15.69-2.83,16.55-3.83,16.83-4.11s13.18-3.83,13.65-3.83,5.24-.84,5.24-.84c0,0,9.6-3.24,10.29-3.5.27-.1.82-.32,1.59-.58,1.22-.42,2.99-.98,5.06-1.4,3.36-.69,12.59-3.45,12.59-3.45l.27-.28,4.46,6.28s2.83,5.02.38,6.12c-2.45,1.1-4.02,2.29-4.02,3.82s0,3.06.19,4.02-3.25,3.44-3.25,4.97-.19,4.59.19,6.69c.38,2.1.57,4.59-.38,5.35-.96.76-3.82,2.87-3.82,2.87l.76,5.55s1.53,2.29.38,3.44c-1.15,1.15-6.88,3.25-6.88,3.25l-7.65,4.59s-4.97.19-6.12.19-4.02-1.34-4.97-.38c-.96.96-5.74,1.53-5.74,1.53l-4.59-2.49-4.78.57-4.4-1.72s-4.78.19-5.74-.19-2.1-1.34-3.25-3.44-3.06-7.84-3.06-7.84c0,0-.96-1.15-2.29,1.15-1.34,2.29-2.87,3.25-2.87,3.25,0,0-1.91,1.72-4.21,1.15-2.29-.57-2.49-1.34-3.63-.96-1.15.38-1.72,1.15-2.68,1.34s-.12.89-3.12.16c-3-.73-.84-.57-4.34-.73-.97-.04-2.22,0-3.51.08.04-.61.03-1.19-.03-1.7-.05-.43-.19-.88-.39-1.34-.78-1.79-2.42-3.57-2.42-3.57,0,0-3.98-3.98-7.72-7.02-3.74-3.04-3.28-4.68-3.28-4.68l-.97-3.62h0Z"/>
  <path id="pasonuevo" class="cls-1" d="m38.26,334.08c0-.64.06-.94.06-1.78,0-1.6,1.8-1.6,0-2.63-1.8-1.03-1.99.83-3.02-2.31s-.83-3.59-1.41-3.85c-.58-.26-.9.13-.19-2.12.71-2.25,2.44-1.73.77-2.89-1.67-1.16-5.07-2.89-5.78-3.27-.71-.38-1.41-1.86-3.15-2.63-1.73-.77-2.76-1.54-2.76-1.54,0,0,1.42-3.37,2.03-3.37s2.65-2.24-.2-4.08c-2.85-1.83-3.87-1.83-6.11-3.77-2.24-1.94-.1-3.06-4.99-5.61-4.89-2.55-4.99-3.26-7.24-4.48-2.24-1.22-4.99-1.94-4.99-3.57s-1.43-4.38-1.12-4.89c.31-.51,3.57-6.22,4.38-6.22s5.3-3.87,6.32-6.11c1.02-2.24,3.97-6.52,4.18-7.03.2-.51.61-6.01.61-6.01l1.83-1.12s2.28-1.42,3.23-1.42,5.48-4.96,6.75-5.06c1.27-.11,2.32-1.69,3.69-4.64,1.37-2.95,2.11-6.22,2.11-6.22,0,0-.74-3.16-.53-3.8.21-.63,3.48-4.85,5.38-4.74s8.44-2,10.44-2.53c2-.53,5.06-.63,7.7-1.37,2.64-.74,8.65-2.85,10.02-2.85.37,0,1.31-.24,2.49-.58.67-.2,1.42-.43,2.18-.67l.97,3.62s-.47,1.64,3.28,4.68c3.74,3.04,7.72,7.02,7.72,7.02,0,0,2.57,2.81,2.81,4.91.23,2.11-.23,5.38-2.57,7.26-2.34,1.87-4.21,3.74-7.26,5.38-3.04,1.64-4.21,1.17-6.55,4.21-2.34,3.04-3.98,3.04-3.98,5.15,0,1.12-.87,4.18-1.67,6.79-.25-.1-.52-.21-.81-.32-1.63-.65-3.84-1.58-5.05-2.26-2.06-1.16-4.4-4.67-6.98-4.91-2.57-.23-.94-2.57-4.21-.94-3.28,1.64-5.15,1.87-5.15,1.87,0,0-1.64,1.87-2.81,3.74-1.17,1.87-4.68,6.32-4.68,6.32l4.68,8.19v4.91l3.28,7.26s.7.7.47,2.57c-.23,1.87-1.64,3.51-1.64,4.68s-1.17,4.45-.7,5.62c.47,1.17,2.14,3.8,3.98,6.09s3.74.47,5.38,1.4c1.64.94,3.04,2.34,3.51,3.74s.47,3.51.47,3.51c0,0-.94-.94-2.11,1.64-1.17,2.57-5.42,3.92-5.42,3.92,0,0,5.35,7.21-1.14,7.08-2.34-.04-4.58-.03-6.48.02h0Z"/>
  <path id="nuevaestrella" class="cls-1" d="m51.13,371.16v-.51c0-2.12,1.66-3.04,0-4.24-1.66-1.2-2.68-.83-2.86-2.12s-.83-1.75.28-3.14,1.57-2.4,1.94-2.86c.37-.46,1.2-1.2.92-3.14s-.83-3.69-.83-3.69c0,0,1.3-3.2,1.3-3.62s.44-1.75-.21-2.33c-.65-.58-.51-1.5-2.12-1.5s-1.94.09-2.7-.21c-.76-.3-2.63-1.54-2.74-1.59-.12-.05-.16-.44-.16-.44,0,0,1.36-2.75-.05-3.39-1.41-.64-.45-.9-2.31-.77-1.86.13-2.82,3.72-3.15-.19-.07-.89-.12-1.56-.15-2.07-.03-.58-.04-.97-.04-1.28,1.9-.04,4.14-.06,6.48-.02,6.48.12,1.14-7.08,1.14-7.08,0,0,4.25-1.34,5.42-3.92,1.17-2.57,2.11-1.64,2.11-1.64,0,0,0-2.11-.47-3.51s-1.87-2.81-3.51-3.74c-1.64-.94-3.54.88-5.38-1.4-1.84-2.29-3.51-4.91-3.98-6.09-.47-1.17.7-4.45.7-5.62s1.4-2.81,1.64-4.68c.23-1.87-.47-2.57-.47-2.57l-3.28-7.26v-4.91l-4.68-8.19s3.51-4.45,4.68-6.32c1.17-1.87,2.81-3.74,2.81-3.74,0,0,1.87-.23,5.15-1.87,3.28-1.64,1.64.7,4.21.94,2.57.23,4.91,3.74,6.98,4.91,2.06,1.16,7.07,3.05,7.07,3.05l8.89,3.74s4.21,3.51,5.38,4.45c1.17.94,4.45,3.98,4.45,3.98l.47,8.43.23,9.6s-2.34,7.96-2.34,9.6,3.51,1.4,5.15,1.64c1.64.23,3.74,3.74,3.74,3.74,0,0,.23,5.85,1.4,7.26,1.17,1.4,1.33,4.15,4.91,3.98,3.59-.17,2.34,1.17,3.74,1.64,1.4.47,5.15,1.64,6.79,1.64s3.98-.94,6.79-2.57c2.81-1.64,2.94-.53,7.49-3.28,4.55-2.75,3.04,1.64,4.45,2.34,1.4.7-7.26,8.43-9.83,8.19-2.57-.7-4.45,4.57-4.68,6.73-.23,2.16,5.38,4.31,5.38,4.31,0,0,12.06,4.94,13.6,4.77.03,0,.05,0,.08,0-.41.42-.72,1.01-1.28,1.81l-.03.04c-1.13,1.63-2.26,2.39-2.26,2.39,0,0-4.02,2.77-4.65,2.39-.63-.38-3.52-3.39-4.65-2.77s-2.89,1.26-3.77,2.89c-.88,1.63-.38,2.26-2.01,2.01-1.63-.25-4.53-1.89-4.53-1.89,0,0-3.02-1.13-3.27-.13-.25,1.01-.75,3.27-1.76,3.27s-2.51-.13-3.39-.38c-.88-.25-1.13-1.89-2.64-.88-1.51,1.01-1.53,4.42-3.15,3.41-1.62-1.02-6.65-3.41-8.41-5.54-1.76-2.14-.88-2.26-2.26-2.64-1.38-.38-2.01-1.63-3.52-1.51-1.51.13-6.66,3.02-6.66,3.02,0,0-6.66,2.14-8.3,3.9s-1.89,3.52-3.27,4.4-2.14,1.76-3.77,2.77c-1.63,1.01-.88.88-4.78,3.14-.51.3-1,.59-1.47.88h0Z"/>
</svg>